<svg id="Слой_1" xmlns="http://www.w3.org/2000/svg" width="32" height="32" viewBox="0 0 32 32" class="self"><style>.self{fill:#595651;transition:fill ease .3s}.self:hover{cursor:pointer;fill:#747069}</style><path d="M19.797 13.551h-2.783V11.52c0-.623.645-.768.945-.768h1.798V8.011L17.696 8c-2.811 0-3.453 2.044-3.453 3.354v2.196h-2.04v2.824h2.04v7.625h2.771v-7.625h2.354l.429-2.823z"/><path d="M23 2c3.86 0 7 3.14 7 7v14c0 3.86-3.14 7-7 7H9c-3.86 0-7-3.14-7-7V9c0-3.86 3.14-7 7-7h14m0-2H9a9 9 0 0 0-9 9v14a9 9 0 0 0 9 9h14a9 9 0 0 0 9-9V9a9 9 0 0 0-9-9z"/></svg>