<svg id="Слой_1" xmlns="http://www.w3.org/2000/svg" width="32" height="32" viewBox="0 0 32 32" class="self"><style>.self{fill:#00a750;transition:fill ease .3s}.self:hover{cursor:pointer;fill:#00da68}</style><path d="M16 7.755c-4.547 0-8.246 3.699-8.246 8.246 0 4.546 3.699 8.245 8.246 8.245s8.246-3.699 8.246-8.245c0-4.547-3.699-8.246-8.246-8.246zm0 13.651A5.412 5.412 0 0 1 10.594 16c0-2.981 2.425-5.406 5.406-5.406s5.406 2.425 5.406 5.406A5.412 5.412 0 0 1 16 21.406zM24.591 5.347c-.547 0-1.084.221-1.471.609a2.093 2.093 0 0 0-.611 1.473 2.1 2.1 0 0 0 .611 1.473c.386.386.924.609 1.471.609.549 0 1.085-.223 1.473-.609.388-.388.609-.926.609-1.473 0-.549-.221-1.086-.609-1.473a2.095 2.095 0 0 0-1.473-.609z"/><g><path d="M23 2c3.86 0 7 3.14 7 7v14c0 3.86-3.14 7-7 7H9c-3.86 0-7-3.14-7-7V9c0-3.86 3.14-7 7-7h14m0-2H9a9 9 0 0 0-9 9v14a9 9 0 0 0 9 9h14a9 9 0 0 0 9-9V9a9 9 0 0 0-9-9z"/></g></svg>