<svg xmlns="http://www.w3.org/2000/svg" width="182.901" height="67.59" viewBox="0 0 182.901 67.59"><g fill="#FFF"><path d="M24.943 35.867V38.7H1.514V.822H8.54v35.045h16.403z"/><path d="M23.866 38.7L39.42.057 55.596 38.7h-7.479l-3.938-10.086h-13.06L27.209 38.7h-3.343zm8.245-12.466h11.02l-5.524-13.825-5.496 13.825zM89.962 29.719c-1.473 3.192-3.527 5.643-6.162 7.352-2.635 1.709-5.699 2.564-9.194 2.564-5.194 0-9.509-1.86-12.947-5.581-3.438-3.721-5.156-8.48-5.156-14.278 0-5.647 1.761-10.355 5.284-14.123C65.309 1.884 69.677 0 74.89 0c3.173 0 5.926.652 8.259 1.955 2.333 1.304 4.264 3.258 5.794 5.865l-2.267 1.586c-1.171-2.304-2.62-4.032-4.349-5.185-1.728-1.152-3.725-1.728-5.992-1.728-3.796 0-6.804 1.568-9.023 4.703-2.219 3.135-3.329 7.413-3.329 12.834 0 5.232 1.057 9.293 3.173 12.182 2.115 2.89 5.08 4.335 8.896 4.335 2.55 0 4.812-.704 6.785-2.111 1.974-1.407 3.584-3.471 4.83-6.191l2.295 1.474zM90.557 38.7L106.11.057 122.287 38.7h-7.479l-3.938-10.086H97.81L93.9 38.7h-3.343zm8.244-12.466h11.02l-5.524-13.825-5.496 13.825zM127.698 31.504c.831 1.587 1.894 2.824 3.188 3.712 1.293.888 2.686 1.331 4.178 1.331 2.021 0 3.664-.638 4.93-1.912 1.265-1.275 1.898-2.913 1.898-4.915 0-3.192-2.824-5.949-8.471-8.272l-.085-.028c-3.041-1.247-5.198-2.653-6.473-4.222-1.275-1.567-1.912-3.55-1.912-5.949 0-3.286 1.095-5.982 3.286-8.088C130.427 1.053 133.26 0 136.736 0c2.606 0 4.887.586 6.842 1.757 1.955 1.171 3.404 2.833 4.349 4.986l-2.493 1.672c-.623-1.775-1.558-3.14-2.805-4.094-1.246-.954-2.729-1.431-4.448-1.431-1.832 0-3.334.59-4.505 1.77-1.171 1.181-1.756 2.725-1.756 4.632 0 1.511.482 2.796 1.445 3.853.963 1.058 2.767 2.153 5.411 3.286 4.174 1.795 6.927 3.513 8.259 5.156 1.331 1.643 1.997 3.75 1.997 6.318 0 3.399-1.176 6.204-3.527 8.414-2.352 2.21-5.331 3.315-8.938 3.315-2.607 0-4.855-.501-6.743-1.502-1.889-1.001-3.532-2.55-4.929-4.646l2.803-1.982zM151.014 38.7L166.568.057 182.744 38.7h-7.479l-3.938-10.086h-13.06l-3.91 10.086h-3.343zm8.244-12.466h11.02l-5.524-13.825-5.496 13.825z"/><g><path d="M4.191 65.873c-1.543-1.384-1.925-3.197-1.925-4.708 0-1.066.366-2.927 1.781-4.342.954-.954 2.402-1.702 4.851-1.702.636 0 1.527.048 2.306.191.604.111 1.097.159 1.686.238.111.016.143.08.143.175 0 .127-.048.318-.08.891-.032.525-.032 1.4-.048 1.639-.016.238-.048.334-.143.334-.111 0-.127-.111-.127-.334 0-.621-.254-1.272-.668-1.623-.557-.477-1.781-.907-3.181-.907-2.116 0-3.102.621-3.659 1.161C3.966 58 3.696 59.415 3.696 61.037c0 3.038 2.338 5.821 5.742 5.821 1.193 0 2.132-.143 2.768-.795.334-.35.541-1.05.588-1.336.032-.175.064-.238.159-.238.08 0 .111.111.111.238 0 .111-.191 1.495-.35 2.036-.096.302-.127.334-.414.461-.636.254-1.845.366-2.863.366-2.383 0-3.989-.588-5.246-1.717zM20.88 62.755c0 1.527 0 2.783.08 3.451.048.461.143.812.62.875.223.032.573.064.716.064.096 0 .127.048.127.095 0 .08-.08.127-.254.127-.875 0-1.877-.048-1.956-.048-.08 0-1.082.048-1.559.048-.175 0-.254-.032-.254-.127 0-.048.032-.095.127-.095.143 0 .334-.032.477-.064.318-.064.397-.414.461-.875.079-.668.079-1.924.079-3.451v-6.728c-.779.016-1.575.016-2.354.032-.986.016-1.368.127-1.622.509-.175.271-.223.382-.271.493-.048.127-.096.159-.159.159-.048 0-.08-.048-.08-.143 0-.159.318-1.527.35-1.654.032-.095.096-.302.159-.302.111 0 .27.159.7.191a16.64 16.64 0 0 0 1.256.079h5.964a6.43 6.43 0 0 0 1.129-.079c.239-.032.382-.08.446-.08.079 0 .079.096.079.191 0 .477-.048 1.575-.048 1.749 0 .143-.048.207-.111.207-.08 0-.112-.048-.127-.27 0-.064-.016-.112-.016-.175-.048-.477-.429-.843-1.956-.875-.668-.016-1.336-.016-2.004-.032v6.728zM26.593 61.339c0-2.576 1.877-6.219 6.267-6.219 3.578 0 6.251 2.258 6.251 5.964 0 3.563-2.513 6.506-6.346 6.506-4.358 0-6.172-3.388-6.172-6.251zm10.991.191c0-3.817-2.322-5.869-4.835-5.869-2.656 0-4.644 1.75-4.644 5.233 0 3.706 2.227 6.092 5.09 6.092 1.431 0 4.389-.827 4.389-5.456zM41.358 65.618c-.143.398-.223.779-.223 1.066 0 .318.302.461.573.461h.143c.159 0 .206.032.206.095 0 .096-.143.127-.286.127-.382 0-1.018-.048-1.193-.048-.175 0-1.05.048-1.797.048-.207 0-.302-.032-.302-.127 0-.064.08-.095.222-.095.112 0 .254-.016.382-.032.732-.095 1.05-.7 1.336-1.495l3.611-9.877c.19-.525.254-.62.35-.62.095 0 .159.08.35.573.239.604 2.736 7.173 3.706 9.591.573 1.416 1.034 1.67 1.368 1.765.238.08.493.096.62.096.096 0 .175.016.175.095 0 .096-.143.127-.318.127-.238 0-1.4 0-2.497-.032-.302-.016-.477-.016-.477-.112 0-.063.048-.095.111-.111.096-.032.191-.175.096-.429l-3.293-8.907c-.079-.238-.159-.238-.238 0l-2.625 7.841z"/><path d="M60.178 55.343c.175 0 .254.032.254.127 0 .064-.064.096-.127.096-.112 0-.207.016-.398.048-.429.08-.557.35-.589.907-.032.509-.032.954-.032 3.436v2.799c0 1.527 0 2.783.08 3.451.048.461.143.812.62.875.222.032.557.064.652.064.143 0 .19.048.19.095 0 .08-.063.127-.238.127-.875 0-1.893-.048-1.972-.048-.08 0-1.05.048-1.527.048-.175 0-.254-.032-.254-.127 0-.048.032-.095.175-.095.096 0 .271-.016.414-.048.318-.063.414-.429.477-.891.08-.668.08-1.924.08-3.436v-.477c0-.095-.032-.111-.111-.111-.684.016-1.161-.016-1.527-.032-.048 0-.096 0-.159.032a1.032 1.032 0 0 0-.303.254c-.302.318-1.209 1.654-1.622 2.227-.747 1.129-1.145 1.607-1.591 2.004-.541.493-1.241.7-2.545.7l-.779-.016c-.191 0-.286-.032-.286-.127 0-.032.048-.095.254-.095.19 0 .27 0 .509-.016.715-.064 1.177-.302 1.893-1.177a59.887 59.887 0 0 0 1.718-2.195c.509-.652 1.098-1.495 1.622-1.861-1.607-.652-2.29-1.924-2.29-3.165 0-1.24.652-2.147 1.495-2.704.636-.445 1.559-.668 2.672-.668.715 0 1.288.048 1.686.048.191-.002 1.081-.049 1.559-.049zm-2.196.811c0-.063-.016-.111-.095-.159-.207-.08-.334-.096-.811-.096-1.766 0-2.927.97-2.927 2.863 0 1.813 1.4 2.863 3.069 2.863.366 0 .541-.016.668-.063.095-.032.095-.143.095-.207v-5.201zM64.794 59.956c0-2.481 0-2.927-.032-3.436-.032-.541-.159-.796-.684-.907a2.96 2.96 0 0 0-.541-.048c-.064 0-.127-.032-.127-.096 0-.095.08-.127.254-.127.716 0 1.67.048 1.797.048.35 0 1.272-.048 2.004-.048 1.988 0 2.704.668 2.958.907.35.334.795 1.05.795 2.084 0 2.068-1.654 3.595-3.913 3.595-.08 0-.254 0-.334-.016-.08 0-.175-.032-.175-.111 0-.127.095-.143.429-.143 1.543 0 2.752-1.05 2.752-2.72 0-.398-.048-1.463-.891-2.322s-1.813-.795-2.179-.795c-.271 0-.541.032-.684.095-.096.032-.127.143-.127.303v6.537c0 1.527 0 2.783.08 3.451.048.461.143.812.62.875.222.032.573.064.716.064.095 0 .127.048.127.095 0 .08-.08.127-.254.127-.875 0-1.877-.048-1.956-.048-.048 0-1.05.048-1.527.048-.175 0-.254-.032-.254-.127 0-.048.032-.095.127-.095.143 0 .334-.032.477-.064.318-.064.398-.414.461-.875.08-.668.08-1.924.08-3.451v-2.8zM82.866 60.385c.048 0 .095-.016.095-.095v-.334c0-2.481 0-2.927-.032-3.436-.032-.541-.159-.796-.684-.907a2.96 2.96 0 0 0-.541-.048c-.064 0-.127-.032-.127-.096 0-.095.08-.127.254-.127.716 0 1.718.048 1.797.048s1.082-.048 1.559-.048c.175 0 .254.032.254.127 0 .064-.064.096-.127.096-.112 0-.207.016-.398.048-.43.08-.557.35-.589.907-.032.509-.032.954-.032 3.436v2.799c0 1.527 0 2.783.079 3.451.048.461.143.812.62.875.223.032.573.064.716.064.096 0 .127.048.127.095 0 .08-.08.127-.254.127-.875 0-1.877-.048-1.956-.048s-1.082.048-1.559.048c-.175 0-.254-.032-.254-.127 0-.048.032-.095.127-.095.143 0 .334-.032.477-.064.318-.064.398-.414.461-.875.079-.668.079-1.924.079-3.451v-1.67a.092.092 0 0 0-.095-.096h-6.744c-.048 0-.095.016-.095.096v1.67c0 1.527 0 2.783.079 3.451.048.461.143.812.62.875.223.032.573.064.716.064.096 0 .127.048.127.095 0 .08-.08.127-.254.127-.875 0-1.877-.048-1.956-.048s-1.082.048-1.559.048c-.175 0-.254-.032-.254-.127 0-.048.032-.095.127-.095.143 0 .334-.032.477-.064.318-.064.398-.414.461-.875.079-.668.079-1.924.079-3.451v-2.799c0-2.481 0-2.927-.032-3.436-.032-.541-.159-.796-.684-.907a2.96 2.96 0 0 0-.541-.048c-.064 0-.127-.032-.127-.096 0-.095.08-.127.254-.127.716 0 1.718.048 1.797.048s1.082-.048 1.559-.048c.175 0 .254.032.254.127 0 .064-.064.096-.127.096-.112 0-.207.016-.398.048-.43.08-.557.35-.589.907-.032.509-.032.954-.032 3.436v.334c0 .079.048.095.095.095h6.75zM87.88 61.339c0-2.576 1.877-6.219 6.267-6.219 3.578 0 6.251 2.258 6.251 5.964 0 3.563-2.513 6.506-6.346 6.506-4.358 0-6.172-3.388-6.172-6.251zm10.991.191c0-3.817-2.322-5.869-4.835-5.869-2.656 0-4.644 1.75-4.644 5.233 0 3.706 2.227 6.092 5.09 6.092 1.431 0 4.389-.827 4.389-5.456zM104.013 59.956c0-2.481 0-2.927-.032-3.436-.032-.541-.159-.796-.684-.907-.111-.032-.318-.032-.461-.048-.111-.016-.207-.032-.207-.096 0-.095.08-.127.254-.127.366 0 .796 0 1.797.048.111 0 3.276 0 3.642-.016.35-.016.636-.048.731-.096.096-.048.127-.064.175-.064.048 0 .064.064.064.143 0 .111-.096.302-.127.747-.016.239-.032.541-.064.954-.016.159-.063.271-.127.271-.095 0-.127-.08-.127-.207 0-.207-.032-.397-.079-.525-.111-.366-.445-.525-1.145-.589-.271-.032-2.004-.048-2.179-.048-.064 0-.095.048-.095.159v4.39c0 .111.016.159.095.159.207 0 2.163 0 2.529-.032.43-.032.636-.08.796-.271.079-.095.127-.159.191-.159.048 0 .08.032.08.127s-.08.366-.127.891c-.048.493-.048.859-.064 1.082-.016.159-.048.238-.111.238-.095 0-.111-.127-.111-.254 0-.143-.016-.302-.064-.445-.064-.238-.254-.461-.827-.525-.429-.048-2.004-.08-2.274-.08-.08 0-.111.048-.111.112v1.4c0 .541-.016 2.386 0 2.72.032.652.127 1.002.525 1.161.271.111.7.143 1.32.143.477 0 1.002-.016 1.432-.143.509-.159.684-.493.811-1.177.032-.175.064-.238.143-.238.096 0 .096.127.096.238 0 .127-.127 1.209-.207 1.543-.112.414-.239.414-.859.414-1.177 0-1.702-.032-2.322-.048-.636-.016-1.368-.048-1.988-.048-.382 0-.763.064-1.177.048-.175 0-.254-.032-.254-.127 0-.048.08-.079.175-.095.159-.016.254-.016.366-.048.334-.079.541-.302.573-1.495.016-.62.032-1.432.032-2.847v-2.797zM124.792 62.675c-.08 0-.127.048-.159.127l-.955 2.815c-.143.398-.222.779-.222 1.066 0 .318.302.461.573.461h.143c.159 0 .207.032.207.095 0 .096-.143.127-.287.127-.382 0-1.018-.048-1.193-.048-.175 0-1.05.048-1.797.048-.207 0-.302-.032-.302-.127 0-.064.079-.095.222-.095.111 0 .254-.016.382-.032.732-.095 1.05-.7 1.336-1.495l3.61-9.877c.191-.525.254-.62.35-.62s.159.08.35.573c.238.604 2.735 7.173 3.706 9.591.573 1.416 1.034 1.67 1.368 1.765.238.08.493.096.62.096.095 0 .175.016.175.095 0 .096-.143.127-.318.127-.238 0-1.4 0-2.497-.032-.303-.016-.477-.016-.477-.112 0-.063.048-.095.111-.111.096-.032.191-.175.096-.429l-1.479-3.913c-.032-.063-.064-.095-.143-.095h-3.42zm3.213-.572c.08 0 .08-.048.064-.111l-1.511-4.295c-.08-.238-.159-.238-.238 0l-1.4 4.295c-.032.08 0 .111.048.111h3.037zM137.392 62.755c0 1.527 0 2.783.08 3.451.048.461.143.812.62.875.223.032.573.064.716.064.095 0 .127.048.127.095 0 .08-.08.127-.254.127-.875 0-1.877-.048-1.956-.048-.08 0-1.082.048-1.559.048-.175 0-.254-.032-.254-.127 0-.048.032-.095.127-.095.143 0 .334-.032.477-.064.318-.064.398-.414.461-.875.08-.668.08-1.924.08-3.451v-6.728c-.779.016-1.575.016-2.354.032-.986.016-1.368.127-1.622.509-.175.271-.223.382-.271.493-.048.127-.095.159-.159.159-.048 0-.079-.048-.079-.143 0-.159.318-1.527.35-1.654.032-.095.096-.302.159-.302.111 0 .271.159.7.191a16.64 16.64 0 0 0 1.256.079H140c.509 0 .875-.032 1.13-.079.238-.032.382-.08.445-.08.08 0 .08.096.08.191 0 .477-.048 1.575-.048 1.749 0 .143-.048.207-.111.207-.08 0-.111-.048-.127-.27 0-.064-.016-.112-.016-.175-.048-.477-.429-.843-1.956-.875-.668-.016-1.336-.016-2.004-.032v6.728zM144.824 59.956c0-2.481 0-2.927-.032-3.436-.032-.541-.159-.796-.684-.907-.112-.032-.318-.032-.461-.048-.111-.016-.207-.032-.207-.096 0-.095.08-.127.254-.127.366 0 .796 0 1.797.048.111 0 3.277 0 3.643-.016.35-.016.636-.048.731-.096.096-.048.127-.064.175-.064.048 0 .063.064.063.143 0 .111-.095.302-.127.747-.016.239-.032.541-.063.954-.016.159-.064.271-.127.271-.096 0-.127-.08-.127-.207a1.58 1.58 0 0 0-.08-.525c-.112-.366-.445-.525-1.145-.589-.271-.032-2.004-.048-2.179-.048-.064 0-.096.048-.096.159v4.39c0 .111.016.159.096.159.207 0 2.163 0 2.529-.032.429-.032.636-.08.796-.271.08-.095.127-.159.191-.159.048 0 .079.032.079.127s-.079.366-.127.891c-.048.493-.048.859-.063 1.082-.016.159-.048.238-.112.238-.095 0-.111-.127-.111-.254 0-.143-.016-.302-.064-.445-.064-.238-.254-.461-.827-.525-.429-.048-2.004-.08-2.274-.08-.08 0-.112.048-.112.112v1.4c0 .541-.016 2.386 0 2.72.032.652.127 1.002.525 1.161.271.111.7.143 1.321.143.477 0 1.002-.016 1.431-.143.509-.159.684-.493.811-1.177.032-.175.064-.238.143-.238.095 0 .095.127.095.238 0 .127-.127 1.209-.206 1.543-.111.414-.238.414-.859.414-1.177 0-1.702-.032-2.322-.048-.636-.016-1.368-.048-1.988-.048-.382 0-.763.064-1.177.048-.175 0-.254-.032-.254-.127 0-.048.079-.079.175-.095.159-.016.254-.016.366-.048.334-.079.541-.302.573-1.495.016-.62.032-1.432.032-2.847v-2.797zM154.496 65.618c-.143.398-.222.779-.222 1.066 0 .318.302.461.573.461h.143c.159 0 .207.032.207.095 0 .096-.143.127-.287.127-.382 0-1.018-.048-1.193-.048s-1.05.048-1.797.048c-.207 0-.302-.032-.302-.127 0-.064.079-.095.222-.095.111 0 .254-.016.382-.032.732-.095 1.05-.7 1.336-1.495l3.61-9.877c.191-.525.254-.62.35-.62.096 0 .159.08.35.573.238.604 2.735 7.173 3.706 9.591.573 1.416 1.034 1.67 1.368 1.765.238.08.493.096.62.096.095 0 .175.016.175.095 0 .096-.143.127-.318.127-.238 0-1.4 0-2.497-.032-.303-.016-.477-.016-.477-.112 0-.063.048-.095.111-.111.096-.032.191-.175.096-.429l-3.292-8.907c-.08-.238-.159-.238-.239 0l-2.625 7.841zM164.982 67.367c-.175 0-.254-.032-.254-.127 0-.048.064-.095.191-.095s.27 0 .429-.032c.318-.064.382-.445.445-.907.079-.668.079-1.924.079-3.451v-2.799c0-2.481 0-2.927-.032-3.436-.032-.541-.191-.811-.541-.891a2.077 2.077 0 0 0-.493-.064c-.064 0-.127-.032-.127-.096 0-.095.08-.127.254-.127.525 0 1.479.048 1.559.048.08 0 1.066-.048 1.543-.048.175 0 .254.032.254.127 0 .064-.063.096-.127.096-.111 0-.206.016-.397.048-.429.08-.557.35-.589.907-.032.509-.032.954-.032 3.436v.413c0 .064.016.08.064.08h.429c1.829 0 2.64.223 3.324.589 1.082.588 1.75 1.543 1.75 2.911 0 1.527-1.209 3.468-3.929 3.468-.636 0-1.813-.096-2.275-.096-.078-.001-1.048.046-1.525.046zm2.163-5.312c0 1.606 0 3.038.032 3.785.016.43.191.684.429.796.382.175.796.271 1.416.271 1.304 0 2.29-.812 2.29-2.593 0-1.113-.302-2.004-1.161-2.688-.652-.525-1.638-.699-2.942-.668-.032 0-.064.032-.064.08v1.017zM176.135 59.956c0-2.481 0-2.927-.032-3.436-.032-.541-.159-.796-.684-.907-.112-.032-.318-.032-.461-.048-.111-.016-.207-.032-.207-.096 0-.095.08-.127.254-.127.366 0 .796 0 1.797.048.111 0 3.277 0 3.642-.016.35-.016.636-.048.731-.096.096-.048.127-.064.175-.064.048 0 .063.064.063.143 0 .111-.095.302-.127.747-.016.239-.032.541-.063.954-.016.159-.064.271-.127.271-.096 0-.127-.08-.127-.207a1.58 1.58 0 0 0-.08-.525c-.112-.366-.445-.525-1.145-.589-.271-.032-2.004-.048-2.179-.048-.064 0-.096.048-.096.159v4.39c0 .111.016.159.096.159.207 0 2.163 0 2.529-.032.429-.032.636-.08.796-.271.08-.095.127-.159.191-.159.048 0 .079.032.079.127s-.079.366-.127.891c-.048.493-.048.859-.063 1.082-.016.159-.048.238-.112.238-.095 0-.111-.127-.111-.254 0-.143-.016-.302-.064-.445-.064-.238-.255-.461-.827-.525-.429-.048-2.004-.08-2.274-.08-.08 0-.112.048-.112.112v1.4c0 .541-.016 2.386 0 2.72.032.652.127 1.002.525 1.161.271.111.7.143 1.321.143.477 0 1.002-.016 1.431-.143.509-.159.684-.493.811-1.177.032-.175.064-.238.143-.238.095 0 .095.127.095.238 0 .127-.127 1.209-.206 1.543-.111.414-.238.414-.859.414-1.177 0-1.702-.032-2.322-.048-.636-.016-1.368-.048-1.988-.048-.382 0-.763.064-1.177.048-.175 0-.254-.032-.254-.127 0-.048.079-.079.175-.095.159-.016.254-.016.366-.048.334-.079.541-.302.573-1.495.016-.62.032-1.432.032-2.847v-2.797z"/></g><path d="M0 47.145h182.901v1.875H0z"/></g></svg>