<svg xmlns="http://www.w3.org/2000/svg" width="20" height="14.218" viewBox="0 0 20 14.218"><g fill="#5B5651"><path d="M16.193 10.982a.32.32 0 0 1-.221-.088l-3.711-3.481a.321.321 0 0 1-.014-.455.32.32 0 0 1 .456-.014l3.711 3.481a.321.321 0 0 1-.221.557zM3.806 10.982a.322.322 0 0 1-.221-.557l3.712-3.481a.322.322 0 1 1 .442.469l-3.712 3.481a.318.318 0 0 1-.221.088z"/><path d="M18.388 14.218H1.612A1.614 1.614 0 0 1 0 12.606V1.612C0 .723.724 0 1.612 0h16.775C19.276 0 20 .723 20 1.612v10.994c0 .889-.724 1.612-1.612 1.612zM1.612.645a.968.968 0 0 0-.967.967v10.994c0 .533.434.967.967.967h16.775a.968.968 0 0 0 .967-.967V1.612a.968.968 0 0 0-.967-.967H1.612z"/><path d="M10 8.73c-.429 0-.858-.143-1.184-.427L.535 1.079A.323.323 0 0 1 .959.593L9.24 7.816c.412.359 1.109.359 1.52 0L19.03.605a.322.322 0 1 1 .424.486l-8.27 7.211A1.802 1.802 0 0 1 10 8.73z"/></g></svg>