<svg xmlns="http://www.w3.org/2000/svg" width="21" height="15.218" viewBox="0 0 21 15.218"><g fill="#00A750" stroke="#00A750" stroke-miterlimit="10"><path d="M16.693 11.482a.32.32 0 0 1-.221-.088l-3.711-3.481a.321.321 0 0 1-.014-.455.32.32 0 0 1 .456-.014l3.711 3.481a.321.321 0 0 1-.221.557zM4.306 11.482a.322.322 0 0 1-.221-.557l3.712-3.481a.322.322 0 1 1 .442.469l-3.712 3.481a.318.318 0 0 1-.221.088z"/></g><path fill="#00A750" stroke="#00A750" stroke-miterlimit="10" d="M18.888 14.718H2.112A1.614 1.614 0 0 1 .5 13.106V2.112C.5 1.223 1.224.5 2.112.5h16.775c.889 0 1.612.723 1.612 1.612v10.994a1.613 1.613 0 0 1-1.611 1.612zM2.112 1.145a.968.968 0 0 0-.967.967v10.994c0 .533.434.967.967.967h16.775a.968.968 0 0 0 .967-.967V2.112a.968.968 0 0 0-.967-.967H2.112z"/><path fill="#00A750" stroke="#00A750" stroke-miterlimit="10" d="M10.5 9.23c-.429 0-.858-.143-1.184-.427L1.035 1.579a.323.323 0 0 1 .424-.486L9.74 8.316c.412.359 1.109.359 1.52 0l8.27-7.211a.322.322 0 1 1 .424.485l-8.27 7.211a1.798 1.798 0 0 1-1.184.429z"/></svg>