<svg xmlns="http://www.w3.org/2000/svg" width="74.396" height="55.999" viewBox="0 0 74.396 55.999"><g fill="#FFF"><path d="M70.685 55.013H20.937a3.712 3.712 0 0 1 0-7.424h49.747a3.712 3.712 0 0 1 .001 7.424zM70.685 31.712H20.937a3.712 3.712 0 0 1 0-7.424h49.747a3.712 3.712 0 0 1 .001 7.424zM70.685 8.411H20.937a3.712 3.712 0 0 1 0-7.424h49.747a3.712 3.712 0 0 1 .001 7.424z"/><circle cx="4.985" cy="4.985" r="4.985"/><circle cx="4.985" cy="28" r="4.985"/><circle cx="4.985" cy="51.014" r="4.985"/></g></svg>