<svg xmlns="http://www.w3.org/2000/svg" width="74.396" height="62.891" viewBox="0 0 74.396 62.891"><path fill="#FFF" d="M70.685 35.157H20.937a3.712 3.712 0 0 1 0-7.424h49.747a3.712 3.712 0 0 1 .001 7.424z"/><circle fill="#FFF" cx="4.985" cy="31.445" r="4.985"/><path fill="#FFF" d="M70.396 35.157a3.991 3.991 0 0 1-2.828-1.171L40.41 6.828a4 4 0 1 1 5.656-5.657l27.157 27.158a3.999 3.999 0 0 1-2.827 6.828z"/><path fill="#FFF" d="M43.238 62.891a3.991 3.991 0 0 0 2.828-1.171l27.157-27.158a4 4 0 1 0-5.656-5.657L40.41 56.062a3.999 3.999 0 0 0 2.828 6.829z"/></svg>