<svg xmlns="http://www.w3.org/2000/svg" width="52" height="52" viewBox="0 0 52 52"><g fill="#007E43"><path d="M50.24 0H31.731c-.471 0-.88.188-1.226.534L.495 30.513c-.66.66-.66 1.791 0 2.451l18.541 18.541c.66.66 1.791.66 2.451 0l29.979-30.011c.345-.346.534-.754.534-1.225V1.76C52 .786 51.214 0 50.24 0zm-1.728 19.578L20.261 47.765 4.171 31.739 32.422 3.488h16.09v16.09z"/><path d="M40.216 17.567c1.603 0 2.954-.566 4.117-1.728 1.131-1.132 1.697-2.483 1.697-4.085 0-1.603-.566-2.954-1.697-4.085-1.1-1.099-2.482-1.665-4.117-1.665-1.634 0-3.017.566-4.116 1.665-1.1 1.1-1.666 2.482-1.666 4.117 0 1.602.566 2.954 1.666 4.054 1.162 1.161 2.513 1.727 4.116 1.727zm-1.603-7.449c.395-.424.911-.66 1.602-.66.66 0 1.226.22 1.666.66a2.295 2.295 0 0 1 0 3.268c-.471.471-1.037.723-1.666.723-.66 0-1.177-.266-1.602-.723-.455-.487-.723-1.006-.723-1.602.001-.629.269-1.178.723-1.666z"/></g></svg>