<svg xmlns="http://www.w3.org/2000/svg" width="66.062" height="52" viewBox="0 0 66.062 52"><g fill="#007E43"><path d="M62.753 8.774H48.908l-.468-3.308-.359-2.23c-.145-.898-.621-1.643-1.367-2.266C45.95.334 45.132 0 44.233 0H21.721c-.899 0-1.726.323-2.482.971-.755.648-1.156 1.407-1.294 2.266l-.36 2.23-.503 3.308H3.309C1.474 8.774 0 10.249 0 12.011v36.681A3.3 3.3 0 0 0 3.309 52h59.444a3.3 3.3 0 0 0 3.309-3.308V12.011c0-1.762-1.475-3.237-3.309-3.237zm-.683 39.235H3.956V12.73h13.126c1.978 0 3.686-1.471 3.956-3.38l.467-3.308.36-2.05h22.296l.324 2.05.503 3.308c.29 1.906 2.014 3.38 3.92 3.38H62.07v35.279z"/><path d="M55.669 22.116c1.726 0 3.165-1.474 3.165-3.2 0-1.762-1.402-3.237-3.165-3.237s-3.165 1.475-3.165 3.237c0 1.726 1.439 3.2 3.165 3.2zM32.977 13.773c-4.063 0-7.588 1.474-10.5 4.387s-4.388 6.437-4.388 10.501c0 4.063 1.475 7.588 4.388 10.5s6.437 4.291 10.5 4.351c8.056.119 14.983-6.868 14.888-14.852-.048-4.1-1.475-7.588-4.387-10.501-2.913-2.912-6.401-4.386-10.501-4.386zm7.695 22.62c-2.121 2.121-4.675 3.164-7.696 3.164-2.984 0-5.538-1.043-7.66-3.164-2.122-2.122-3.165-4.711-3.165-7.732 0-2.985 1.043-5.574 3.165-7.696 2.122-2.121 4.675-3.2 7.66-3.2 3.021 0 5.574 1.079 7.696 3.2 2.122 2.122 3.201 4.711 3.201 7.696 0 3.021-1.079 5.61-3.201 7.732z"/></g></svg>