<svg xmlns="http://www.w3.org/2000/svg" width="53.181" height="52" viewBox="0 0 53.181 52"><g fill="#007E43"><path d="M44.414 26.501a1.51 1.51 0 0 0-1.533 1.534v20.951H32.013v-8.555c0-.803-.669-1.504-1.477-1.504h-7.859c-.864 0-1.561.702-1.561 1.504v8.555H10.275V28.73c0-.809-.668-1.48-1.533-1.48a1.49 1.49 0 0 0-1.477 1.48v21.79c0 .809.669 1.48 1.477 1.48h13.935a1.49 1.49 0 0 0 1.477-1.48v-8.555h4.849v8.555c0 .809.669 1.48 1.533 1.48h13.879a1.49 1.49 0 0 0 1.477-1.48V28.035c-.001-.868-.67-1.534-1.478-1.534z"/><path d="M52.747 25.696L40.652 13.549V5.268c0-.862-.697-1.528-1.561-1.528-.809 0-1.477.666-1.477 1.528v5.244L27.637.476C27.331.166 26.968 0 26.606 0c-.418 0-.781.172-1.087.476L.466 25.529c-.601.6-.641 1.564 0 2.117.557.642 1.517.6 2.118 0L26.606 3.68l23.967 24.191c.25.25.613.392 1.087.392.418 0 .78-.143 1.087-.392.557-.558.599-1.569 0-2.175z"/></g></svg>