<svg xmlns="http://www.w3.org/2000/svg" width="56.911" height="56.9" viewBox="0 0 56.911 56.9"><path fill="#007E43" stroke="#007E43" stroke-miterlimit="10" d="M45.429 56.4c-2.326 0-5.135-.583-8.222-1.747-6.775-2.555-14.141-7.602-20.749-14.209C9.851 33.837 4.804 26.468 2.249 19.691-.077 13.534-.083 8.48 2.23 6.167c.335-.335.675-.692 1.025-1.059C5.367 2.889 7.809.368 10.913.505c2.181.09 4.293 1.444 6.459 4.133 6.385 7.944 3.507 10.776.175 14.059l-.59.583c-.545.545-1.578 3.069 8.01 12.654 3.132 3.131 5.799 5.421 7.929 6.807 1.344.872 3.744 2.189 4.727 1.205l.592-.598c3.279-3.328 6.111-6.197 14.053.186 2.691 2.162 4.043 4.274 4.133 6.457.13 3.163-2.39 5.554-4.612 7.664-.365.348-.722.684-1.053 1.015-1.156 1.152-2.991 1.73-5.307 1.73zM10.689 2.378c-2.245 0-4.276 2.136-6.071 4.024-.363.38-.714.75-1.059 1.094-1.722 1.72-1.546 6.248.447 11.533 2.463 6.53 7.357 13.664 13.78 20.087S31.342 50.432 37.87 52.895c5.285 1.995 9.813 2.168 11.535.444.344-.342.711-.692 1.087-1.049 1.933-1.837 4.123-3.917 4.029-6.226-.066-1.585-1.22-3.29-3.433-5.067-6.618-5.317-8.467-3.437-11.535-.331l-.602.607c-1.461 1.468-3.843 1.147-7.081-.959-2.237-1.455-5.009-3.83-8.234-7.053-7.955-7.955-10.501-12.821-8.01-15.315l.6-.594c3.117-3.069 4.998-4.921-.322-11.539-1.779-2.209-3.484-3.364-5.069-3.431a3.606 3.606 0 0 0-.146-.004z"/><g fill="#007E43" stroke="#007E43" stroke-miterlimit="10"><path d="M45.758 23.602a.937.937 0 0 1-.87-1.292 7.894 7.894 0 0 0-1.737-8.559c-2.311-2.311-5.863-2.952-8.843-1.613a.94.94 0 0 1-1.243-.468.937.937 0 0 1 .468-1.243c3.687-1.67 8.085-.867 10.947 1.997a9.764 9.764 0 0 1 2.149 10.593.943.943 0 0 1-.871.585z"/><path d="M54.151 27.009a.937.937 0 0 1-.353-.07.935.935 0 0 1-.517-1.222 16.933 16.933 0 0 0-3.725-18.372c-4.96-4.96-12.588-6.351-18.981-3.462a.947.947 0 0 1-1.245-.47.944.944 0 0 1 .47-1.247C36.902-1.042 45.374.502 50.885 6.013a18.805 18.805 0 0 1 4.137 20.408.939.939 0 0 1-.871.588z"/></g></svg>