<svg xmlns="http://www.w3.org/2000/svg" width="41.87" height="52" viewBox="0 0 41.87 52"><path fill="#007E43" d="M41.565 18.962l-.152-.407-3.716-5.956c-.229-.662-.687-.993-1.349-.993h-5.014v-.993c0-3.08-.967-5.6-2.927-7.611C26.446.993 23.977 0 20.973 0c-3.029 0-5.517.999-7.483 3.003-1.954 1.992-2.953 4.531-2.953 7.611v.993H5.523c-.56 0-.967.254-1.196.738l-.102.102-3.793 6.108c-.127.28-.204.484-.204.611A2.888 2.888 0 0 0 0 20.312v28.634c0 .866.299 1.585.891 2.164.605.591 1.349.89 2.189.89h35.71c1.731 0 3.08-1.323 3.08-3.054V20.312a3.01 3.01 0 0 0-.305-1.35zm-10.232-4.53h4.174l1.731 2.8h-5.905v-2.8zm-17.97-3.818c0-2.316.706-4.181 2.113-5.626C16.894 3.532 18.733 2.8 20.973 2.8c2.214 0 4.047.738 5.447 2.189 1.4 1.451 2.113 3.309 2.113 5.626v.993h-15.17v-.994zm0 3.818h15.17v2.8h-15.17v-2.8zm-7.051 0h4.225v2.8h-5.93l1.705-2.8zm32.733 34.514c0 .179-.077.255-.255.255H3.08c-.178 0-.255-.076-.255-.255V20.312c0-.178.077-.255.255-.255h35.71c.178 0 .255.077.255.255v28.634z"/></svg>