<svg xmlns="http://www.w3.org/2000/svg" width="56.9" height="40.74" viewBox="0 0 56.9 40.74"><g fill="#007E43" stroke="#007E43" stroke-miterlimit="10"><path d="M45.759 31.193a.89.89 0 0 1-.616-.245l-10.372-9.73a.901.901 0 0 1 1.234-1.313l10.372 9.73a.901.901 0 0 1-.618 1.558zM11.138 31.193a.9.9 0 0 1-.618-1.558l10.375-9.73a.902.902 0 0 1 1.234 1.313l-10.375 9.73a.89.89 0 0 1-.616.245z"/><path d="M51.893 40.24H5.006A4.511 4.511 0 0 1 .5 35.734V5.006A4.511 4.511 0 0 1 5.006.5h46.887a4.511 4.511 0 0 1 4.506 4.506v30.727a4.511 4.511 0 0 1-4.506 4.507zM5.006 2.303a2.707 2.707 0 0 0-2.704 2.704v30.727a2.707 2.707 0 0 0 2.704 2.704h46.887a2.707 2.707 0 0 0 2.704-2.704V5.006a2.707 2.707 0 0 0-2.704-2.704H5.006z"/><path d="M28.45 24.899c-1.199 0-2.397-.398-3.309-1.193L1.996 3.516a.903.903 0 0 1-.088-1.273.908.908 0 0 1 1.273-.087l23.144 20.188c1.152 1.004 3.099 1.004 4.249 0L53.689 2.189a.903.903 0 0 1 1.186 1.36L31.759 23.704c-.914.796-2.111 1.195-3.309 1.195z"/></g></svg>