<svg xmlns="http://www.w3.org/2000/svg" width="20.004" height="20" viewBox="0 0 20.004 20"><path fill="#5B5651" d="M16.075 20c-.832 0-1.837-.209-2.942-.625-2.424-.914-5.06-2.72-7.424-5.084s-4.17-5-5.084-7.425C-.207 4.663-.209 2.855.618 2.027c.12-.12.242-.248.367-.379C1.74.854 2.614-.048 3.725.001c.78.032 1.536.517 2.311 1.479 2.285 2.842 1.255 3.855.063 5.03l-.211.209c-.195.195-.564 1.098 2.866 4.527 1.121 1.12 2.075 1.939 2.837 2.435.481.312 1.339.783 1.691.431l.212-.214c1.173-1.191 2.186-2.217 5.028.067.963.774 1.446 1.529 1.479 2.31.046 1.132-.855 1.987-1.65 2.742-.131.124-.258.245-.377.363-.414.413-1.07.62-1.899.62zM3.646.672c-.803 0-1.53.764-2.172 1.44-.13.135-.256.268-.379.391-.617.616-.553 2.236.16 4.127.881 2.336 2.632 4.889 4.93 7.187s4.85 4.048 7.185 4.93c1.891.714 3.511.776 4.127.159.123-.122.254-.248.389-.375.692-.657 1.475-1.401 1.442-2.227-.024-.567-.437-1.177-1.228-1.813-2.368-1.902-3.029-1.23-4.127-.118l-.215.217c-.523.525-1.375.41-2.533-.343-.801-.521-1.792-1.37-2.946-2.523-2.847-2.849-3.758-4.59-2.867-5.482l.215-.212c1.115-1.098 1.788-1.761-.115-4.129C4.876 1.111 4.265.697 3.698.673L3.646.672z"/><g fill="#5B5651"><path d="M16.193 8.266a.335.335 0 0 1-.311-.462 2.823 2.823 0 0 0-.622-3.062 2.846 2.846 0 0 0-3.164-.577.336.336 0 0 1-.277-.613 3.516 3.516 0 0 1 3.917.714 3.495 3.495 0 0 1 .769 3.79.339.339 0 0 1-.312.21z"/><path d="M19.196 9.485a.334.334 0 0 1-.311-.462 6.058 6.058 0 0 0-1.333-6.573 6.098 6.098 0 0 0-6.791-1.238.338.338 0 0 1-.445-.168.338.338 0 0 1 .168-.446 6.777 6.777 0 0 1 7.544 1.376 6.729 6.729 0 0 1 1.48 7.302.34.34 0 0 1-.312.209z"/></g></svg>