<svg xmlns="http://www.w3.org/2000/svg" width="17.166" height="21" viewBox="0 0 17.166 21"><g fill="#00A750" stroke="#00A750" stroke-miterlimit="10"><path d="M8.577 4.485c-2.308 0-4.182 1.878-4.182 4.182s1.874 4.186 4.182 4.186 4.182-1.878 4.182-4.182-1.874-4.186-4.182-4.186zm0 7.365c-1.755 0-3.179-1.428-3.179-3.179s1.428-3.179 3.179-3.179 3.179 1.428 3.179 3.179-1.424 3.179-3.179 3.179z"/><path d="M8.577.5c-.094 0-.192 0-.286.004C4.256.643.922 3.777.537 7.791A8.164 8.164 0 0 0 .7 10.365a7.78 7.78 0 0 0 .54 1.588c.831 1.968 2.651 5 6.604 8.282a1.171 1.171 0 0 0 1.482-.001c3.948-3.277 5.769-6.313 6.596-8.265a7.966 7.966 0 0 0 .597-1.858 8.039 8.039 0 0 0 .147-1.534C16.658 4.125 13.033.5 8.577.5zm6.948 9.439c0 .008-.012.078-.041.205-.11.483-.27.953-.483 1.42-.79 1.866-2.525 4.75-6.318 7.897a.164.164 0 0 1-.102.037.17.17 0 0 1-.102-.037c-3.793-3.151-5.532-6.035-6.326-7.913a7.062 7.062 0 0 1-.479-1.408c-.024-.106-.036-.172-.04-.192 0-.008-.004-.016-.004-.025a7.214 7.214 0 0 1-.095-2.033 7.088 7.088 0 0 1 6.792-6.383c4.014-.139 7.328 3.085 7.328 7.074.001.45-.044.9-.13 1.358z"/></g></svg>