<svg xmlns="http://www.w3.org/2000/svg" width="13.506" height="18.25" viewBox="0 0 13.506 18.25"><path fill="#5B5651" stroke="#5B5651" stroke-width=".25" stroke-miterlimit="10" d="M6.753 9.833c-1.697 0-3.079-1.381-3.079-3.079s1.381-3.079 3.079-3.079 3.079 1.381 3.079 3.079S8.45 9.833 6.753 9.833zm0-5.616c-1.399 0-2.536 1.138-2.536 2.537s1.138 2.537 2.536 2.537S9.29 8.153 9.29 6.754 8.152 4.217 6.753 4.217z"/><path fill="#5B5651" stroke="#5B5651" stroke-width=".25" stroke-miterlimit="10" d="M6.753 18.125a.27.27 0 0 1-.208-.097c-.262-.313-6.42-7.706-6.42-11.274C.125 3.099 3.098.125 6.753.125s6.628 2.974 6.628 6.629c0 3.569-6.158 10.961-6.42 11.274a.27.27 0 0 1-.208.097zm0-17.458A6.093 6.093 0 0 0 .667 6.754c0 3.02 4.996 9.332 6.086 10.673 1.09-1.341 6.086-7.653 6.086-10.673A6.094 6.094 0 0 0 6.753.667z"/></svg>