<svg xmlns="http://www.w3.org/2000/svg" width="21.011" height="21" viewBox="0 0 21.011 21"><g fill="#00A750" stroke="#00A750" stroke-miterlimit="10"><path d="M19.712 6.605c-1.055-2.46-2.848-4.249-5.328-5.306A9.826 9.826 0 0 0 10.489.5a9.718 9.718 0 0 0-3.884.799c-2.46 1.055-4.26 2.843-5.317 5.306A9.728 9.728 0 0 0 .5 10.489a9.78 9.78 0 0 0 .788 3.895c1.057 2.464 2.858 4.262 5.317 5.317 1.238.531 2.527.798 3.884.798s2.656-.27 3.895-.798c2.48-1.058 4.273-2.858 5.328-5.317a9.788 9.788 0 0 0 .799-3.895 9.722 9.722 0 0 0-.799-3.884zm-1.597 8.304a8.77 8.77 0 0 1-3.217 3.206 8.623 8.623 0 0 1-4.409 1.182c-1.192 0-2.33-.23-3.414-.7-1.083-.47-2.019-1.089-2.801-1.871s-1.405-1.727-1.871-2.812a8.619 8.619 0 0 1-.689-3.425c0-1.586.39-3.055 1.171-4.398a8.786 8.786 0 0 1 3.206-3.206 8.549 8.549 0 0 1 4.398-1.182c1.586 0 3.062.396 4.409 1.182a8.808 8.808 0 0 1 3.217 3.206 8.551 8.551 0 0 1 1.182 4.398 8.641 8.641 0 0 1-1.182 4.42z"/><path d="M11.124 10.402V4.734c0-.339-.295-.613-.635-.613a.617.617 0 0 0-.602.613v5.755c0 .011.022.055.022.088a.57.57 0 0 0 .164.492l3.272 3.271a.622.622 0 0 0 .842 0 .59.59 0 0 0 0-.853l-3.063-3.085z"/></g></svg>