<svg xmlns="http://www.w3.org/2000/svg" width="14.25" height="14.25" viewBox="0 0 14.25 14.25"><path fill="#5B5651" stroke="#5B5651" stroke-width=".25" stroke-miterlimit="10" d="M7.126 14.125c-3.86 0-7.001-3.139-7.001-6.999A7.008 7.008 0 0 1 7.126.125c3.86 0 7 3.141 7 7.001a7.008 7.008 0 0 1-7 6.999zm0-13.574A6.583 6.583 0 0 0 .551 7.126a6.581 6.581 0 0 0 6.575 6.573A6.581 6.581 0 0 0 13.7 7.126C13.699 3.501 10.75.551 7.126.551z"/><path fill="#5B5651" stroke="#5B5651" stroke-width=".25" stroke-miterlimit="10" d="M9.16 9.798a.21.21 0 0 1-.164-.078L6.962 7.262a.212.212 0 0 1-.049-.136V3.041a.213.213 0 1 1 .426 0V7.05l1.986 2.399a.214.214 0 0 1-.165.349z"/></svg>