<svg xmlns="http://www.w3.org/2000/svg" width="21.183" height="22" viewBox="0 0 21.183 22"><g fill="#010101"><path d="M11.63 8.307H9.138V5.815a.415.415 0 0 0-.831 0v2.492H5.815a.415.415 0 0 0 0 .831h2.492v2.492a.415.415 0 0 0 .83 0V9.138h2.492a.415.415 0 0 0 .001-.831z"/><path d="M21.068 21.297l-6.172-6.419a8.696 8.696 0 0 0 2.549-6.156C17.445 3.913 13.532 0 8.723 0S0 3.913 0 8.723s3.913 8.723 8.723 8.723a8.684 8.684 0 0 0 5.559-2.007l6.187 6.434a.416.416 0 1 0 .599-.576zM.831 8.723c0-4.352 3.54-7.892 7.892-7.892s7.892 3.54 7.892 7.892-3.54 7.892-7.892 7.892S.831 13.074.831 8.723z"/></g></svg>